<?xml version="1.0" encoding="utf-8"?>
<!-- Generator: Adobe Illustrator 24.3.0, SVG Export Plug-In . SVG Version: 6.00 Build 0)  -->
<svg version="1.1" id="Layer_1" xmlns="http://www.w3.org/2000/svg" xmlns:xlink="http://www.w3.org/1999/xlink" x="0px" y="0px"
	 viewBox="0 0 2000 2000" style="enable-background:new 0 0 2000 2000;" xml:space="preserve">
<g>
	<g>
		<g>
			<path style="fill:#147EFA;" d="M947.2,1048.55c-50.29-27.22-77.83-81.99-69.6-138.6c3.75-25.79,14.36-48.5,31.72-68.95
				c-1.72,0-2.84,0-3.96,0c-9,0.03-18,0.15-26.99,0.03c-2.21-0.03-3.36,0.78-4.45,2.55c-23.51,38.41-30.58,79.71-20.31,123.46
				c16.65,70.91,77.87,121.31,150.67,124.18c26.9,1.06,48-4.62,57.91-7.92c31.47-10.45,52.17-28.29,62.53-38.59
				c-6.44-6.29-12.89-12.57-19.33-18.86c-8.62,8.24-39.64,35.84-87.41,38.46C983.34,1066.22,957.38,1054.06,947.2,1048.55z"/>
		</g>
		<g>
			<path style="fill:#147EFA;" d="M997.59,1009.35c-30.87-5.41-52.41-23.3-62.8-52.77c-10.44-29.61-4.56-56.92,15.89-80.85
				c7.14-8.35,15.99-14.62,25.81-20c-4.15,0.39-8.31,0.66-12.44,1.18c-12.22,1.53-24.15,4.15-34.96,10.41
				c-5.56,3.22-10.88,6.97-13.91,12.8c-10.81,20.8-14.56,42.94-10.79,66.03c8.3,50.89,47.85,87.26,99.46,91.04
				c18.42,1.35,32.47-2.35,36.97-3.65c23.47-6.76,38.64-20.27,45.7-27.48c-6.13-6.6-12.26-13.2-18.39-19.8
				c-5.56,5.81-18.56,17.73-38.86,22.46C1026.75,1009.3,1014.02,1012.23,997.59,1009.35z"/>
		</g>
		<g>
			<path style="fill:#FF8600;" d="M879.65,835.01c2.37-3.02,4.3-5.34,6.06-7.79c0.98-1.36,2.26-1.25,3.62-1.27
				c44.77-0.67,89.54-0.8,134.32-0.53c28.04,0.17,56.07,0.65,84.09,1.45c1.15,0.03,2.3,0.05,3.45,0.12
				c1.23,0.07,2.81-0.07,2.71,1.76c-0.09,1.53-1.51,1.44-2.66,1.49c-10.14,0.45-20.27,0.99-30.41,1.35
				c-65.66,2.35-131.34,3.32-197.04,3.4C882.67,835.01,881.56,835.01,879.65,835.01z"/>
		</g>
		<g>
			<path style="fill:#147EFA;" d="M892.71,819.36c5.85-6.46,12.26-12.24,19.11-17.52c14.24-10.98,14.24-10.76,32.24-9.88
				c17.56,0.86,35.13,1.52,52.67,2.7c1.25,0.08,2.5,0.19,3.77,0.43c-8.19,0.92-16.32,2.15-24.27,4.29
				c-14.55,3.93-28.13,10.03-40.61,18.5c-1.1,0.75-2.13,1.53-3.66,1.52C918.99,819.33,906.03,819.36,892.71,819.36z"/>
		</g>
		<g>
			<path style="fill:#FF8600;" d="M917.23,859.43c6.81-6.8,15.15-11.09,24.06-14.31c19.19-6.93,39.14-8.56,59.35-7.94
				c15.16,0.47,30.04,2.6,44.04,8.78c16.25,7.17,28.02,18.45,32.24,36.33c1.5,6.36,1.81,12.81,0.71,19.3
				c-0.24-4.22-0.44-8.43-1.19-12.59c-3.82-21.17-17.32-33.67-36.75-40.66c-17.31-6.23-35.37-7.19-53.55-6.84
				c-10.78,0.2-21.51,1.15-32.1,3.34c-13.05,2.69-25.32,7.22-36.07,15.31C917.3,860.32,917.09,860.05,917.23,859.43z"/>
		</g>
		<g>
			<path style="fill:#FF8600;" d="M1095.13,846.74c5.01,0,10.02,0.09,15.02-0.04c2.5-0.07,3.6,0.7,3.55,3.37
				c-0.14,7.3,0.54,6.57-6.58,6.58c-8.97,0.01-17.94-0.08-26.91,0.05c-2.9,0.04-4.14-0.72-4.05-3.87c0.17-6.08,0.02-6.09,6.14-6.09
				C1086.58,846.74,1090.86,846.74,1095.13,846.74z"/>
		</g>
		<g>
			<path style="fill:#FF8600;" d="M917.23,859.43c0.24,0.24,0.48,0.47,0.72,0.71c-1.71,1.59-3.12,3.58-5.52,4.26
				C914.01,862.7,915.18,860.62,917.23,859.43z"/>
		</g>
		<g>
			<path style="fill:#FF8600;" d="M1149.38,873.31c-2.2-0.77-4.5-0.92-6.81-0.92c-3.19-0.01-6.38,0-10.11,0
				c2.91-3.23,2.64-6.12,0.21-8.91c5.52-1.54,6.62-4.76,3.48-9.82c2.28-0.43,4.08-1.38,4.92-3.75c0.83-2.35-0.44-4.1-1.58-5.93
				c4.09-1.06,5.82-2.85,5.2-5.99c-0.42-2.15,0.07-2.74,2.12-3.27c4.24-1.1,6.63-5.18,5.74-9.11c-0.94-4.15-4.55-6.72-8.91-6.02
				c-1.53,0.25-2.24-0.15-3.07-1.3c-3.26-4.53-7.2-8.44-11.57-11.87c-5.03-3.95-10.22-7.59-16.69-8.97
				c-15.56-3.33-31.26-5.77-47.05-7.6c-38.37-4.46-76.89-6.83-115.46-8.44c-4.52-0.19-7.76,2.18-11.43,3.61
				c0.17,0.91,0.56,0.75,0.83,0.76c27.4,0.9,54.77,2.38,82.1,4.53c26.6,2.09,53.13,4.79,79.39,9.6c7.89,1.45,15.91,2.54,22.5,7.92
				c3.9,3.18,7.77,6.37,11.11,10.13c0.85,0.95,1.92,1.84,2.31,3.38c-3.72,0.87-7.13,1.93-8.79,5.57c-0.95,2.09-1.89,4.19-2.72,6.32
				c-6.72,17.33-11.57,35.32-19.17,52.36c-4.25,9.52-7.06,19.67-10.43,29.57c-0.56,1.64-1.27,2.31-3.08,2.25
				c-4.81-0.14-9.63-0.11-14.44-0.02c-1.57,0.03-1.99-0.45-1.76-1.97c0.62-4.05,0.65-8.13,0.55-12.21
				c-0.59-22.71-10.15-39.75-31.4-49.31c-11.9-5.36-24.55-7.63-37.46-8.51c-21.82-1.49-43.48-0.83-64.84,4.65
				c-5.83,1.5-10.45,4.22-13.64,9.33c1.21,0.34,2.24-0.18,3.3-0.65c4.81-2.09,9.78-3.72,14.87-4.94c18.5-4.43,37.29-4.92,56.17-3.98
				c13.24,0.66,26.25,2.62,38.55,7.88c16.1,6.89,26.15,18.66,28.96,36.22c1.37,8.56,1.01,17.1-0.26,25.62
				c-0.3,2.01,0.06,2.7,2.31,2.69c17.79-0.1,35.58-0.14,53.37-0.03c6.44,0.04,11.28-2.43,14.75-7.83
				c4.86-7.59,9.07-15.51,12.33-23.91c1.1-2.83,1.82-5.78,1.69-8.87C1155.28,877.43,1153.28,874.68,1149.38,873.31z M1133.14,860.39
				c-0.59-0.11-1.04-0.35-0.73-1.01c0.48-1.05,0.28-2.68,1.63-2.96c0.77-0.16,1.19,1.05,1.07,1.89
				C1134.94,859.38,1134.28,860.17,1133.14,860.39z M1136.62,850.59c-0.61,0.16-0.93-0.25-0.87-1.03c0.54-0.9,0.25-2.52,1.55-2.99
				c0.65-0.23,1.06,0.79,1.12,1.52C1138.52,849.4,1137.87,850.27,1136.62,850.59z M1139.87,840.96c-0.57,0.08-1.06-0.41-0.77-0.98
				c0.56-1.09,0.33-2.84,1.81-3.14c0.78-0.15,1.06,1.05,1.16,1.88C1141.83,839.96,1141.12,840.78,1139.87,840.96z M1125.69,843.13
				c1.51-4.33,3.19-8.61,4.81-12.91c0.95-2.52,2.59-4.15,5.38-4.68c2.56-0.49,5.04-1.36,7.58-1.98c2.48-0.61,4.48,0.1,5.14,2.72
				c0.67,2.63-0.78,4.55-3.24,4.75c-6.71,0.55-9.29,4.6-11.02,10.57c-2.7,9.31-6.3,18.36-9.28,27.6c-0.82,2.55-2.03,3.52-4.62,3.26
				c-1.51-0.15-3.06,0.11-4.92,0.21C1118.97,862.65,1122.29,852.88,1125.69,843.13z M1130.95,869.55c-0.42,0.47-1.4,0.94-1.6,0.5
				c-0.7-1.55,0.4-2.79,1.06-4.29C1131.94,867.01,1132.14,868.22,1130.95,869.55z M1150.26,885.58c-2.96,10.2-8.07,19.4-14.17,28.05
				c-1.5,2.13-3.72,3.52-6.36,3.55c-9.9,0.09-19.8,0.04-30.07,0.04c4.41-12.04,7.74-24.23,12.98-35.74
				c1.42-3.11,3.82-4.43,7.24-4.39c7.94,0.09,15.88-0.06,23.81,0.05C1150.09,877.22,1152.02,879.52,1150.26,885.58z"/>
		</g>
	</g>
	<g>
		<path style="fill:#FF8600;" d="M637.5,1159.89c-5.18-4.4-11.27-6.42-18.14-6.42h-0.11c-14.54,0-23.45,10.71-23.45,24.68v0.11
			c0.11,14.2,9.02,24.8,23.45,24.8h0.11c7.66,0,13.3-2.37,18.14-6.42l9.13,12.51c-6.88,6.31-16.12,9.47-27.28,9.47h-0.11
			c-25.02,0-40.13-16.68-40.13-40.35v-0.11c0-23.55,15.1-40.24,40.13-40.24h0.11c10.26,0,19.95,2.82,27.28,9.47L637.5,1159.89z"/>
		<path style="fill:#FF8600;" d="M673.56,1139.27v61.99h39.79v16h-56.47v-77.99H673.56z"/>
		<path style="fill:#FF8600;" d="M798.33,1217.26h-17.58l-6.31-16.34h-33.92l-6.2,16.34h-17.58l31.78-77.99h17.92L798.33,1217.26z
			 M757.53,1156.4l-11.72,29.87h23.33L757.53,1156.4z"/>
		<path style="fill:#FF8600;" d="M807.9,1217.26v-77.99h16.68v77.99H807.9z"/>
		<path style="fill:#FF8600;" d="M880.71,1180.74l23.78-41.48h16.12v77.99h-16.12v-50.15l-18.71,34.49h-10.14l-18.6-34.49v50.15
			h-16.23v-77.99h16.12L880.71,1180.74z"/>
		<path style="fill:#FF8600;" d="M985.41,1160.91c-5.19-5.64-11.05-8.23-19.61-8.23h-0.11c-9.02,0-14.54,2.82-14.54,7.66
			c0,3.38,2.03,5.97,10.59,7.78l15.1,3.38c15.33,3.27,19.39,13.75,19.39,24.12c0,14.54-12.85,22.99-30.77,22.99h-0.11
			c-16.57,0-28.29-5.75-34.26-16.91l13.64-9.92c5.07,9.13,12.06,12.06,20.96,12.06h0.11c8.79,0,13.53-3.27,13.53-8.68
			c0-4.62-3.04-7.44-9.58-9.02l-17.36-4.28c-12.96-3.16-18.03-11.27-18.03-20.85c0-15.22,12.96-23.11,32.01-23.11h0.11
			c12.28,0,22.2,3.72,28.63,10.71L985.41,1160.91z"/>
		<path style="fill:#147EFA;" d="M1004.9,1208.92c0-5.3,4.17-9.47,10.48-9.47c6.31,0,10.48,4.17,10.48,9.47
			c0,5.41-4.17,9.58-10.48,9.58C1009.07,1218.5,1004.9,1214.33,1004.9,1208.92z"/>
		<path style="fill:#147EFA;" d="M1093.26,1159.89c-5.18-4.4-11.27-6.42-18.14-6.42H1075c-14.54,0-23.45,10.71-23.45,24.68v0.11
			c0.11,14.2,9.02,24.8,23.45,24.8h0.11c7.66,0,13.3-2.37,18.14-6.42l9.13,12.51c-6.88,6.31-16.12,9.47-27.28,9.47H1075
			c-25.02,0-40.12-16.68-40.12-40.35v-0.11c0-23.55,15.1-40.24,40.12-40.24h0.11c10.25,0,19.95,2.82,27.28,9.47L1093.26,1159.89z"/>
		<path style="fill:#147EFA;" d="M1148.37,1137.91c24.91,0,40.12,16.68,40.12,40.24v0.11c0,23.67-15.22,40.35-40.12,40.35h-0.11
			c-24.91,0-40.12-16.68-40.12-40.35v-0.11c0-23.55,15.21-40.24,40.12-40.24H1148.37z M1148.37,1203.06
			c14.54,0,23.44-10.26,23.44-24.8v-0.11c0-14.43-8.9-24.68-23.44-24.68h-0.11c-14.54,0-23.45,10.26-23.45,24.68v0.11
			c0,14.54,8.9,24.8,23.45,24.8H1148.37z"/>
		<path style="fill:#147EFA;" d="M1272.34,1217.26h-17.58l-6.31-16.34h-33.92l-6.2,16.34h-17.58l31.78-77.99h17.92L1272.34,1217.26z
			 M1231.54,1156.4l-11.72,29.87h23.33L1231.54,1156.4z"/>
		<path style="fill:#147EFA;" d="M1332.75,1159.89c-5.18-4.4-11.27-6.42-18.14-6.42h-0.11c-14.54,0-23.45,10.71-23.45,24.68v0.11
			c0.11,14.2,9.02,24.8,23.45,24.8h0.11c7.66,0,13.3-2.37,18.14-6.42l9.13,12.51c-6.88,6.31-16.12,9.47-27.28,9.47h-0.11
			c-25.02,0-40.13-16.68-40.13-40.35v-0.11c0-23.55,15.1-40.24,40.13-40.24h0.11c10.26,0,19.95,2.82,27.28,9.47L1332.75,1159.89z"/>
		<path style="fill:#147EFA;" d="M1404.2,1170.26v-31h16.68v77.99h-16.68v-31.22h-35.39v31.22h-16.68v-77.99h16.68v31H1404.2z"/>
	</g>
</g>
</svg>
